<?xml version="1.0" encoding="UTF-8" standalone="no"?>
<!DOCTYPE svg PUBLIC "-//W3C//DTD SVG 1.1//EN"
 "http://www.w3.org/Graphics/SVG/1.1/DTD/svg11.dtd">
<!-- Generated by graphviz version 11.0.0 (20240428.1522)
 -->
<!-- Title: Gramatica Pages: 1 -->
<svg width="934pt" height="362pt"
 viewBox="0.00 0.00 933.50 361.50" xmlns="http://www.w3.org/2000/svg" xmlns:xlink="http://www.w3.org/1999/xlink">
<g id="graph0" class="graph" transform="scale(1 1) rotate(0) translate(4 357.5)">
<title>Gramatica</title>
<polygon fill="white" stroke="none" points="-4,4 -4,-357.5 929.5,-357.5 929.5,4 -4,4"/>
<text text-anchor="middle" x="462.75" y="-336.2" font-family="Times,serif" font-size="14.00">((a|b|c)*).#</text>
<!-- Clases.nodos@776ec8df -->
<g id="node1" class="node">
<title>Clases.nodos@776ec8df</title>
<polygon fill="none" stroke="black" points="0,-0.5 0,-36.5 217.5,-36.5 217.5,-0.5 0,-0.5"/>
<text text-anchor="middle" x="32.38" y="-21.55" font-family="Arial" font-size="11.00">First Post </text>
<text text-anchor="middle" x="32.38" y="-8.05" font-family="Arial" font-size="11.00">[1]</text>
<polyline fill="none" stroke="black" points="64.75,-0.5 64.75,-36.5"/>
<text text-anchor="middle" x="109.12" y="-21.55" font-family="Arial" font-size="11.00">Nodo: a </text>
<text text-anchor="middle" x="109.12" y="-8.05" font-family="Arial" font-size="11.00"> Anulable: false</text>
<polyline fill="none" stroke="black" points="153.5,-0.5 153.5,-36.5"/>
<text text-anchor="middle" x="185.5" y="-21.55" font-family="Arial" font-size="11.00">Last Post </text>
<text text-anchor="middle" x="185.5" y="-8.05" font-family="Arial" font-size="11.00"> [1]</text>
</g>
<!-- Clases.nodos@2f4d3709 -->
<g id="node2" class="node">
<title>Clases.nodos@2f4d3709</title>
<polygon fill="none" stroke="black" points="236,-0.5 236,-36.5 453.5,-36.5 453.5,-0.5 236,-0.5"/>
<text text-anchor="middle" x="268.38" y="-21.55" font-family="Arial" font-size="11.00">First Post </text>
<text text-anchor="middle" x="268.38" y="-8.05" font-family="Arial" font-size="11.00">[2]</text>
<polyline fill="none" stroke="black" points="300.75,-0.5 300.75,-36.5"/>
<text text-anchor="middle" x="345.12" y="-21.55" font-family="Arial" font-size="11.00">Nodo: b </text>
<text text-anchor="middle" x="345.12" y="-8.05" font-family="Arial" font-size="11.00"> Anulable: false</text>
<polyline fill="none" stroke="black" points="389.5,-0.5 389.5,-36.5"/>
<text text-anchor="middle" x="421.5" y="-21.55" font-family="Arial" font-size="11.00">Last Post </text>
<text text-anchor="middle" x="421.5" y="-8.05" font-family="Arial" font-size="11.00"> [2]</text>
</g>
<!-- Clases.nodos@4e50df2e -->
<g id="node3" class="node">
<title>Clases.nodos@4e50df2e</title>
<polygon fill="none" stroke="black" points="236,-73.5 236,-109.5 453.5,-109.5 453.5,-73.5 236,-73.5"/>
<text text-anchor="middle" x="268.38" y="-94.55" font-family="Arial" font-size="11.00">First Post </text>
<text text-anchor="middle" x="268.38" y="-81.05" font-family="Arial" font-size="11.00">[1, 2]</text>
<polyline fill="none" stroke="black" points="300.75,-73.5 300.75,-109.5"/>
<text text-anchor="middle" x="345.12" y="-94.55" font-family="Arial" font-size="11.00">Nodo: | </text>
<text text-anchor="middle" x="345.12" y="-81.05" font-family="Arial" font-size="11.00"> Anulable: false</text>
<polyline fill="none" stroke="black" points="389.5,-73.5 389.5,-109.5"/>
<text text-anchor="middle" x="421.5" y="-94.55" font-family="Arial" font-size="11.00">Last Post </text>
<text text-anchor="middle" x="421.5" y="-81.05" font-family="Arial" font-size="11.00"> [1, 2]</text>
</g>
<!-- Clases.nodos@4e50df2e&#45;&gt;Clases.nodos@776ec8df -->
<g id="edge1" class="edge">
<title>Clases.nodos@4e50df2e&#45;&gt;Clases.nodos@776ec8df</title>
<path fill="none" stroke="black" d="M286.72,-73.04C253.71,-63.11 212.18,-50.62 177.54,-40.2"/>
<polygon fill="black" stroke="black" points="178.59,-36.86 168.01,-37.33 176.58,-43.56 178.59,-36.86"/>
</g>
<!-- Clases.nodos@4e50df2e&#45;&gt;Clases.nodos@2f4d3709 -->
<g id="edge2" class="edge">
<title>Clases.nodos@4e50df2e&#45;&gt;Clases.nodos@2f4d3709</title>
<path fill="none" stroke="black" d="M344.75,-73.31C344.75,-65.73 344.75,-56.6 344.75,-48.04"/>
<polygon fill="black" stroke="black" points="348.25,-48.04 344.75,-38.04 341.25,-48.04 348.25,-48.04"/>
</g>
<!-- Clases.nodos@1d81eb93 -->
<g id="node4" class="node">
<title>Clases.nodos@1d81eb93</title>
<polygon fill="none" stroke="black" points="472,-0.5 472,-36.5 689.5,-36.5 689.5,-0.5 472,-0.5"/>
<text text-anchor="middle" x="504.38" y="-21.55" font-family="Arial" font-size="11.00">First Post </text>
<text text-anchor="middle" x="504.38" y="-8.05" font-family="Arial" font-size="11.00">[3]</text>
<polyline fill="none" stroke="black" points="536.75,-0.5 536.75,-36.5"/>
<text text-anchor="middle" x="581.12" y="-21.55" font-family="Arial" font-size="11.00">Nodo: c </text>
<text text-anchor="middle" x="581.12" y="-8.05" font-family="Arial" font-size="11.00"> Anulable: false</text>
<polyline fill="none" stroke="black" points="625.5,-0.5 625.5,-36.5"/>
<text text-anchor="middle" x="657.5" y="-21.55" font-family="Arial" font-size="11.00">Last Post </text>
<text text-anchor="middle" x="657.5" y="-8.05" font-family="Arial" font-size="11.00"> [3]</text>
</g>
<!-- Clases.nodos@7291c18f -->
<g id="node5" class="node">
<title>Clases.nodos@7291c18f</title>
<polygon fill="none" stroke="black" points="472,-146.5 472,-182.5 689.5,-182.5 689.5,-146.5 472,-146.5"/>
<text text-anchor="middle" x="504.38" y="-167.55" font-family="Arial" font-size="11.00">First Post </text>
<text text-anchor="middle" x="504.38" y="-154.05" font-family="Arial" font-size="11.00">[1, 2, 3]</text>
<polyline fill="none" stroke="black" points="536.75,-146.5 536.75,-182.5"/>
<text text-anchor="middle" x="581.12" y="-167.55" font-family="Arial" font-size="11.00">Nodo: | </text>
<text text-anchor="middle" x="581.12" y="-154.05" font-family="Arial" font-size="11.00"> Anulable: false</text>
<polyline fill="none" stroke="black" points="625.5,-146.5 625.5,-182.5"/>
<text text-anchor="middle" x="657.5" y="-167.55" font-family="Arial" font-size="11.00">Last Post </text>
<text text-anchor="middle" x="657.5" y="-154.05" font-family="Arial" font-size="11.00"> [1, 2, 3]</text>
</g>
<!-- Clases.nodos@7291c18f&#45;&gt;Clases.nodos@4e50df2e -->
<g id="edge3" class="edge">
<title>Clases.nodos@7291c18f&#45;&gt;Clases.nodos@4e50df2e</title>
<path fill="none" stroke="black" d="M522.72,-146.04C489.71,-136.11 448.18,-123.62 413.54,-113.2"/>
<polygon fill="black" stroke="black" points="414.59,-109.86 404.01,-110.33 412.58,-116.56 414.59,-109.86"/>
</g>
<!-- Clases.nodos@7291c18f&#45;&gt;Clases.nodos@1d81eb93 -->
<g id="edge4" class="edge">
<title>Clases.nodos@7291c18f&#45;&gt;Clases.nodos@1d81eb93</title>
<path fill="none" stroke="black" d="M580.75,-146.01C580.75,-121.33 580.75,-77.33 580.75,-48.03"/>
<polygon fill="black" stroke="black" points="584.25,-48.35 580.75,-38.35 577.25,-48.35 584.25,-48.35"/>
</g>
<!-- Clases.nodos@34a245ab -->
<g id="node6" class="node">
<title>Clases.nodos@34a245ab</title>
<polygon fill="none" stroke="black" points="524.88,-219.5 524.88,-255.5 738.62,-255.5 738.62,-219.5 524.88,-219.5"/>
<text text-anchor="middle" x="557.25" y="-240.55" font-family="Arial" font-size="11.00">First Post </text>
<text text-anchor="middle" x="557.25" y="-227.05" font-family="Arial" font-size="11.00">[1, 2, 3]</text>
<polyline fill="none" stroke="black" points="589.62,-219.5 589.62,-255.5"/>
<text text-anchor="middle" x="632.12" y="-240.55" font-family="Arial" font-size="11.00">Nodo: * </text>
<text text-anchor="middle" x="632.12" y="-227.05" font-family="Arial" font-size="11.00"> Anulable: true</text>
<polyline fill="none" stroke="black" points="674.62,-219.5 674.62,-255.5"/>
<text text-anchor="middle" x="706.62" y="-240.55" font-family="Arial" font-size="11.00">Last Post </text>
<text text-anchor="middle" x="706.62" y="-227.05" font-family="Arial" font-size="11.00"> [1, 2, 3]</text>
</g>
<!-- Clases.nodos@34a245ab&#45;&gt;Clases.nodos@7291c18f -->
<g id="edge5" class="edge">
<title>Clases.nodos@34a245ab&#45;&gt;Clases.nodos@7291c18f</title>
<path fill="none" stroke="black" d="M619.4,-219.31C613.45,-211.03 606.19,-200.91 599.56,-191.69"/>
<polygon fill="black" stroke="black" points="602.54,-189.84 593.86,-183.76 596.86,-193.92 602.54,-189.84"/>
</g>
<!-- Clases.nodos@7cc355be -->
<g id="node7" class="node">
<title>Clases.nodos@7cc355be</title>
<polygon fill="none" stroke="black" points="708,-0.5 708,-36.5 925.5,-36.5 925.5,-0.5 708,-0.5"/>
<text text-anchor="middle" x="740.38" y="-21.55" font-family="Arial" font-size="11.00">First Post </text>
<text text-anchor="middle" x="740.38" y="-8.05" font-family="Arial" font-size="11.00">[4]</text>
<polyline fill="none" stroke="black" points="772.75,-0.5 772.75,-36.5"/>
<text text-anchor="middle" x="817.12" y="-21.55" font-family="Arial" font-size="11.00">Nodo: # </text>
<text text-anchor="middle" x="817.12" y="-8.05" font-family="Arial" font-size="11.00"> Anulable: false</text>
<polyline fill="none" stroke="black" points="861.5,-0.5 861.5,-36.5"/>
<text text-anchor="middle" x="893.5" y="-21.55" font-family="Arial" font-size="11.00">Last Post </text>
<text text-anchor="middle" x="893.5" y="-8.05" font-family="Arial" font-size="11.00"> [4]</text>
</g>
<!-- Clases.nodos@6e8cf4c6 -->
<g id="node8" class="node">
<title>Clases.nodos@6e8cf4c6</title>
<polygon fill="none" stroke="black" points="590,-292.5 590,-328.5 807.5,-328.5 807.5,-292.5 590,-292.5"/>
<text text-anchor="middle" x="622.38" y="-313.55" font-family="Arial" font-size="11.00">First Post </text>
<text text-anchor="middle" x="622.38" y="-300.05" font-family="Arial" font-size="11.00">[1, 2, 3, 4]</text>
<polyline fill="none" stroke="black" points="654.75,-292.5 654.75,-328.5"/>
<text text-anchor="middle" x="699.12" y="-313.55" font-family="Arial" font-size="11.00">Nodo: . </text>
<text text-anchor="middle" x="699.12" y="-300.05" font-family="Arial" font-size="11.00"> Anulable: false</text>
<polyline fill="none" stroke="black" points="743.5,-292.5 743.5,-328.5"/>
<text text-anchor="middle" x="775.5" y="-313.55" font-family="Arial" font-size="11.00">Last Post </text>
<text text-anchor="middle" x="775.5" y="-300.05" font-family="Arial" font-size="11.00"> [4]</text>
</g>
<!-- Clases.nodos@6e8cf4c6&#45;&gt;Clases.nodos@34a245ab -->
<g id="edge6" class="edge">
<title>Clases.nodos@6e8cf4c6&#45;&gt;Clases.nodos@34a245ab</title>
<path fill="none" stroke="black" d="M682.53,-292.31C674.47,-283.77 664.56,-273.27 655.65,-263.82"/>
<polygon fill="black" stroke="black" points="658.27,-261.5 648.86,-256.63 653.18,-266.3 658.27,-261.5"/>
</g>
<!-- Clases.nodos@6e8cf4c6&#45;&gt;Clases.nodos@7cc355be -->
<g id="edge7" class="edge">
<title>Clases.nodos@6e8cf4c6&#45;&gt;Clases.nodos@7cc355be</title>
<path fill="none" stroke="black" d="M706.13,-292.23C726.04,-242.97 780.96,-107.07 805.1,-47.32"/>
<polygon fill="black" stroke="black" points="808.3,-48.75 808.8,-38.16 801.81,-46.12 808.3,-48.75"/>
</g>
</g>
</svg>
