<?xml version="1.0" encoding="UTF-8" standalone="no"?>
<!DOCTYPE svg PUBLIC "-//W3C//DTD SVG 1.1//EN"
 "http://www.w3.org/Graphics/SVG/1.1/DTD/svg11.dtd">
<!-- Generated by graphviz version 11.0.0 (20240428.1522)
 -->
<!-- Title: Gramatica Pages: 1 -->
<svg width="3054pt" height="556pt"
 viewBox="0.00 0.00 3053.50 556.00" xmlns="http://www.w3.org/2000/svg" xmlns:xlink="http://www.w3.org/1999/xlink">
<g id="graph0" class="graph" transform="scale(1 1) rotate(0) translate(4 552)">
<title>Gramatica</title>
<polygon fill="white" stroke="none" points="-4,4 -4,-552 3049.5,-552 3049.5,4 -4,4"/>
<!-- Clases.nodos@119d7047 -->
<g id="node1" class="node">
<title>Clases.nodos@119d7047</title>
<polygon fill="none" stroke="black" points="0,-0.5 0,-36.5 217.5,-36.5 217.5,-0.5 0,-0.5"/>
<text text-anchor="middle" x="32.38" y="-21.55" font-family="Arial" font-size="11.00">First Post </text>
<text text-anchor="middle" x="32.38" y="-8.05" font-family="Arial" font-size="11.00">[1]</text>
<polyline fill="none" stroke="black" points="64.75,-0.5 64.75,-36.5"/>
<text text-anchor="middle" x="109.12" y="-21.55" font-family="Arial" font-size="11.00">Nodo: a </text>
<text text-anchor="middle" x="109.12" y="-8.05" font-family="Arial" font-size="11.00"> Anulable: false</text>
<polyline fill="none" stroke="black" points="153.5,-0.5 153.5,-36.5"/>
<text text-anchor="middle" x="185.5" y="-21.55" font-family="Arial" font-size="11.00">Last Post </text>
<text text-anchor="middle" x="185.5" y="-8.05" font-family="Arial" font-size="11.00"> [1]</text>
</g>
<!-- Clases.nodos@b4c966a -->
<g id="node2" class="node">
<title>Clases.nodos@b4c966a</title>
<polygon fill="none" stroke="black" points="236,-0.5 236,-36.5 453.5,-36.5 453.5,-0.5 236,-0.5"/>
<text text-anchor="middle" x="268.38" y="-21.55" font-family="Arial" font-size="11.00">First Post </text>
<text text-anchor="middle" x="268.38" y="-8.05" font-family="Arial" font-size="11.00">[2]</text>
<polyline fill="none" stroke="black" points="300.75,-0.5 300.75,-36.5"/>
<text text-anchor="middle" x="345.12" y="-21.55" font-family="Arial" font-size="11.00">Nodo: b </text>
<text text-anchor="middle" x="345.12" y="-8.05" font-family="Arial" font-size="11.00"> Anulable: false</text>
<polyline fill="none" stroke="black" points="389.5,-0.5 389.5,-36.5"/>
<text text-anchor="middle" x="421.5" y="-21.55" font-family="Arial" font-size="11.00">Last Post </text>
<text text-anchor="middle" x="421.5" y="-8.05" font-family="Arial" font-size="11.00"> [2]</text>
</g>
<!-- Clases.nodos@2f4d3709 -->
<g id="node3" class="node">
<title>Clases.nodos@2f4d3709</title>
<polygon fill="none" stroke="black" points="472,-0.5 472,-36.5 689.5,-36.5 689.5,-0.5 472,-0.5"/>
<text text-anchor="middle" x="504.38" y="-21.55" font-family="Arial" font-size="11.00">First Post </text>
<text text-anchor="middle" x="504.38" y="-8.05" font-family="Arial" font-size="11.00">[3]</text>
<polyline fill="none" stroke="black" points="536.75,-0.5 536.75,-36.5"/>
<text text-anchor="middle" x="581.12" y="-21.55" font-family="Arial" font-size="11.00">Nodo: c </text>
<text text-anchor="middle" x="581.12" y="-8.05" font-family="Arial" font-size="11.00"> Anulable: false</text>
<polyline fill="none" stroke="black" points="625.5,-0.5 625.5,-36.5"/>
<text text-anchor="middle" x="657.5" y="-21.55" font-family="Arial" font-size="11.00">Last Post </text>
<text text-anchor="middle" x="657.5" y="-8.05" font-family="Arial" font-size="11.00"> [3]</text>
</g>
<!-- Clases.nodos@4e50df2e -->
<g id="node4" class="node">
<title>Clases.nodos@4e50df2e</title>
<polygon fill="none" stroke="black" points="354,-73.5 354,-109.5 571.5,-109.5 571.5,-73.5 354,-73.5"/>
<text text-anchor="middle" x="386.38" y="-94.55" font-family="Arial" font-size="11.00">First Post </text>
<text text-anchor="middle" x="386.38" y="-81.05" font-family="Arial" font-size="11.00">[2]</text>
<polyline fill="none" stroke="black" points="418.75,-73.5 418.75,-109.5"/>
<text text-anchor="middle" x="463.12" y="-94.55" font-family="Arial" font-size="11.00">Nodo: . </text>
<text text-anchor="middle" x="463.12" y="-81.05" font-family="Arial" font-size="11.00"> Anulable: false</text>
<polyline fill="none" stroke="black" points="507.5,-73.5 507.5,-109.5"/>
<text text-anchor="middle" x="539.5" y="-94.55" font-family="Arial" font-size="11.00">Last Post </text>
<text text-anchor="middle" x="539.5" y="-81.05" font-family="Arial" font-size="11.00"> [3]</text>
</g>
<!-- Clases.nodos@4e50df2e&#45;&gt;Clases.nodos@b4c966a -->
<g id="edge1" class="edge">
<title>Clases.nodos@4e50df2e&#45;&gt;Clases.nodos@b4c966a</title>
<path fill="none" stroke="black" d="M433.88,-73.13C418.74,-64.02 399.98,-52.73 383.58,-42.86"/>
<polygon fill="black" stroke="black" points="385.4,-39.87 375.02,-37.72 381.79,-45.87 385.4,-39.87"/>
</g>
<!-- Clases.nodos@4e50df2e&#45;&gt;Clases.nodos@2f4d3709 -->
<g id="edge2" class="edge">
<title>Clases.nodos@4e50df2e&#45;&gt;Clases.nodos@2f4d3709</title>
<path fill="none" stroke="black" d="M491.62,-73.13C506.76,-64.02 525.52,-52.73 541.92,-42.86"/>
<polygon fill="black" stroke="black" points="543.71,-45.87 550.48,-37.72 540.1,-39.87 543.71,-45.87"/>
</g>
<!-- Clases.nodos@1d81eb93 -->
<g id="node5" class="node">
<title>Clases.nodos@1d81eb93</title>
<polygon fill="none" stroke="black" points="354,-146.5 354,-182.5 571.5,-182.5 571.5,-146.5 354,-146.5"/>
<text text-anchor="middle" x="386.38" y="-167.55" font-family="Arial" font-size="11.00">First Post </text>
<text text-anchor="middle" x="386.38" y="-154.05" font-family="Arial" font-size="11.00">[1, 2]</text>
<polyline fill="none" stroke="black" points="418.75,-146.5 418.75,-182.5"/>
<text text-anchor="middle" x="463.12" y="-167.55" font-family="Arial" font-size="11.00">Nodo: | </text>
<text text-anchor="middle" x="463.12" y="-154.05" font-family="Arial" font-size="11.00"> Anulable: false</text>
<polyline fill="none" stroke="black" points="507.5,-146.5 507.5,-182.5"/>
<text text-anchor="middle" x="539.5" y="-167.55" font-family="Arial" font-size="11.00">Last Post </text>
<text text-anchor="middle" x="539.5" y="-154.05" font-family="Arial" font-size="11.00"> [1, 3]</text>
</g>
<!-- Clases.nodos@1d81eb93&#45;&gt;Clases.nodos@119d7047 -->
<g id="edge3" class="edge">
<title>Clases.nodos@1d81eb93&#45;&gt;Clases.nodos@119d7047</title>
<path fill="none" stroke="black" d="M417.92,-146.01C353.24,-119.33 233.85,-70.09 163.87,-41.23"/>
<polygon fill="black" stroke="black" points="165.48,-38.11 154.9,-37.53 162.81,-44.58 165.48,-38.11"/>
</g>
<!-- Clases.nodos@1d81eb93&#45;&gt;Clases.nodos@4e50df2e -->
<g id="edge4" class="edge">
<title>Clases.nodos@1d81eb93&#45;&gt;Clases.nodos@4e50df2e</title>
<path fill="none" stroke="black" d="M462.75,-146.31C462.75,-138.73 462.75,-129.6 462.75,-121.04"/>
<polygon fill="black" stroke="black" points="466.25,-121.04 462.75,-111.04 459.25,-121.04 466.25,-121.04"/>
</g>
<!-- Clases.nodos@7291c18f -->
<g id="node6" class="node">
<title>Clases.nodos@7291c18f</title>
<polygon fill="none" stroke="black" points="708,-0.5 708,-36.5 925.5,-36.5 925.5,-0.5 708,-0.5"/>
<text text-anchor="middle" x="740.38" y="-21.55" font-family="Arial" font-size="11.00">First Post </text>
<text text-anchor="middle" x="740.38" y="-8.05" font-family="Arial" font-size="11.00">[4]</text>
<polyline fill="none" stroke="black" points="772.75,-0.5 772.75,-36.5"/>
<text text-anchor="middle" x="817.12" y="-21.55" font-family="Arial" font-size="11.00">Nodo: c </text>
<text text-anchor="middle" x="817.12" y="-8.05" font-family="Arial" font-size="11.00"> Anulable: false</text>
<polyline fill="none" stroke="black" points="861.5,-0.5 861.5,-36.5"/>
<text text-anchor="middle" x="893.5" y="-21.55" font-family="Arial" font-size="11.00">Last Post </text>
<text text-anchor="middle" x="893.5" y="-8.05" font-family="Arial" font-size="11.00"> [4]</text>
</g>
<!-- Clases.nodos@34a245ab -->
<g id="node7" class="node">
<title>Clases.nodos@34a245ab</title>
<polygon fill="none" stroke="black" points="944,-0.5 944,-36.5 1161.5,-36.5 1161.5,-0.5 944,-0.5"/>
<text text-anchor="middle" x="976.38" y="-21.55" font-family="Arial" font-size="11.00">First Post </text>
<text text-anchor="middle" x="976.38" y="-8.05" font-family="Arial" font-size="11.00">[5]</text>
<polyline fill="none" stroke="black" points="1008.75,-0.5 1008.75,-36.5"/>
<text text-anchor="middle" x="1053.12" y="-21.55" font-family="Arial" font-size="11.00">Nodo: d </text>
<text text-anchor="middle" x="1053.12" y="-8.05" font-family="Arial" font-size="11.00"> Anulable: false</text>
<polyline fill="none" stroke="black" points="1097.5,-0.5 1097.5,-36.5"/>
<text text-anchor="middle" x="1129.5" y="-21.55" font-family="Arial" font-size="11.00">Last Post </text>
<text text-anchor="middle" x="1129.5" y="-8.05" font-family="Arial" font-size="11.00"> [5]</text>
</g>
<!-- Clases.nodos@7cc355be -->
<g id="node8" class="node">
<title>Clases.nodos@7cc355be</title>
<polygon fill="none" stroke="black" points="826,-73.5 826,-109.5 1043.5,-109.5 1043.5,-73.5 826,-73.5"/>
<text text-anchor="middle" x="858.38" y="-94.55" font-family="Arial" font-size="11.00">First Post </text>
<text text-anchor="middle" x="858.38" y="-81.05" font-family="Arial" font-size="11.00">[4]</text>
<polyline fill="none" stroke="black" points="890.75,-73.5 890.75,-109.5"/>
<text text-anchor="middle" x="935.12" y="-94.55" font-family="Arial" font-size="11.00">Nodo: . </text>
<text text-anchor="middle" x="935.12" y="-81.05" font-family="Arial" font-size="11.00"> Anulable: false</text>
<polyline fill="none" stroke="black" points="979.5,-73.5 979.5,-109.5"/>
<text text-anchor="middle" x="1011.5" y="-94.55" font-family="Arial" font-size="11.00">Last Post </text>
<text text-anchor="middle" x="1011.5" y="-81.05" font-family="Arial" font-size="11.00"> [5]</text>
</g>
<!-- Clases.nodos@7cc355be&#45;&gt;Clases.nodos@7291c18f -->
<g id="edge5" class="edge">
<title>Clases.nodos@7cc355be&#45;&gt;Clases.nodos@7291c18f</title>
<path fill="none" stroke="black" d="M905.88,-73.13C890.74,-64.02 871.98,-52.73 855.58,-42.86"/>
<polygon fill="black" stroke="black" points="857.4,-39.87 847.02,-37.72 853.79,-45.87 857.4,-39.87"/>
</g>
<!-- Clases.nodos@7cc355be&#45;&gt;Clases.nodos@34a245ab -->
<g id="edge6" class="edge">
<title>Clases.nodos@7cc355be&#45;&gt;Clases.nodos@34a245ab</title>
<path fill="none" stroke="black" d="M963.62,-73.13C978.76,-64.02 997.52,-52.73 1013.92,-42.86"/>
<polygon fill="black" stroke="black" points="1015.71,-45.87 1022.48,-37.72 1012.1,-39.87 1015.71,-45.87"/>
</g>
<!-- Clases.nodos@6e8cf4c6 -->
<g id="node9" class="node">
<title>Clases.nodos@6e8cf4c6</title>
<polygon fill="none" stroke="black" points="826,-219.5 826,-255.5 1043.5,-255.5 1043.5,-219.5 826,-219.5"/>
<text text-anchor="middle" x="858.38" y="-240.55" font-family="Arial" font-size="11.00">First Post </text>
<text text-anchor="middle" x="858.38" y="-227.05" font-family="Arial" font-size="11.00">[1, 2, 4]</text>
<polyline fill="none" stroke="black" points="890.75,-219.5 890.75,-255.5"/>
<text text-anchor="middle" x="935.12" y="-240.55" font-family="Arial" font-size="11.00">Nodo: | </text>
<text text-anchor="middle" x="935.12" y="-227.05" font-family="Arial" font-size="11.00"> Anulable: false</text>
<polyline fill="none" stroke="black" points="979.5,-219.5 979.5,-255.5"/>
<text text-anchor="middle" x="1011.5" y="-240.55" font-family="Arial" font-size="11.00">Last Post </text>
<text text-anchor="middle" x="1011.5" y="-227.05" font-family="Arial" font-size="11.00"> [1, 3, 5]</text>
</g>
<!-- Clases.nodos@6e8cf4c6&#45;&gt;Clases.nodos@1d81eb93 -->
<g id="edge7" class="edge">
<title>Clases.nodos@6e8cf4c6&#45;&gt;Clases.nodos@1d81eb93</title>
<path fill="none" stroke="black" d="M825.57,-220.08C753.06,-209.17 657.81,-194.84 583.1,-183.6"/>
<polygon fill="black" stroke="black" points="583.67,-180.15 573.26,-182.12 582.63,-187.07 583.67,-180.15"/>
</g>
<!-- Clases.nodos@6e8cf4c6&#45;&gt;Clases.nodos@7cc355be -->
<g id="edge8" class="edge">
<title>Clases.nodos@6e8cf4c6&#45;&gt;Clases.nodos@7cc355be</title>
<path fill="none" stroke="black" d="M934.75,-219.01C934.75,-194.33 934.75,-150.33 934.75,-121.03"/>
<polygon fill="black" stroke="black" points="938.25,-121.35 934.75,-111.35 931.25,-121.35 938.25,-121.35"/>
</g>
<!-- Clases.nodos@12edcd21 -->
<g id="node10" class="node">
<title>Clases.nodos@12edcd21</title>
<polygon fill="none" stroke="black" points="1180,-0.5 1180,-36.5 1397.5,-36.5 1397.5,-0.5 1180,-0.5"/>
<text text-anchor="middle" x="1212.38" y="-21.55" font-family="Arial" font-size="11.00">First Post </text>
<text text-anchor="middle" x="1212.38" y="-8.05" font-family="Arial" font-size="11.00">[6]</text>
<polyline fill="none" stroke="black" points="1244.75,-0.5 1244.75,-36.5"/>
<text text-anchor="middle" x="1289.12" y="-21.55" font-family="Arial" font-size="11.00">Nodo: a </text>
<text text-anchor="middle" x="1289.12" y="-8.05" font-family="Arial" font-size="11.00"> Anulable: false</text>
<polyline fill="none" stroke="black" points="1333.5,-0.5 1333.5,-36.5"/>
<text text-anchor="middle" x="1365.5" y="-21.55" font-family="Arial" font-size="11.00">Last Post </text>
<text text-anchor="middle" x="1365.5" y="-8.05" font-family="Arial" font-size="11.00"> [6]</text>
</g>
<!-- Clases.nodos@34c45dca -->
<g id="node11" class="node">
<title>Clases.nodos@34c45dca</title>
<polygon fill="none" stroke="black" points="1416,-0.5 1416,-36.5 1633.5,-36.5 1633.5,-0.5 1416,-0.5"/>
<text text-anchor="middle" x="1448.38" y="-21.55" font-family="Arial" font-size="11.00">First Post </text>
<text text-anchor="middle" x="1448.38" y="-8.05" font-family="Arial" font-size="11.00">[7]</text>
<polyline fill="none" stroke="black" points="1480.75,-0.5 1480.75,-36.5"/>
<text text-anchor="middle" x="1525.12" y="-21.55" font-family="Arial" font-size="11.00">Nodo: b </text>
<text text-anchor="middle" x="1525.12" y="-8.05" font-family="Arial" font-size="11.00"> Anulable: false</text>
<polyline fill="none" stroke="black" points="1569.5,-0.5 1569.5,-36.5"/>
<text text-anchor="middle" x="1601.5" y="-21.55" font-family="Arial" font-size="11.00">Last Post </text>
<text text-anchor="middle" x="1601.5" y="-8.05" font-family="Arial" font-size="11.00"> [7]</text>
</g>
<!-- Clases.nodos@52cc8049 -->
<g id="node12" class="node">
<title>Clases.nodos@52cc8049</title>
<polygon fill="none" stroke="black" points="1652,-0.5 1652,-36.5 1869.5,-36.5 1869.5,-0.5 1652,-0.5"/>
<text text-anchor="middle" x="1684.38" y="-21.55" font-family="Arial" font-size="11.00">First Post </text>
<text text-anchor="middle" x="1684.38" y="-8.05" font-family="Arial" font-size="11.00">[8]</text>
<polyline fill="none" stroke="black" points="1716.75,-0.5 1716.75,-36.5"/>
<text text-anchor="middle" x="1761.12" y="-21.55" font-family="Arial" font-size="11.00">Nodo: c </text>
<text text-anchor="middle" x="1761.12" y="-8.05" font-family="Arial" font-size="11.00"> Anulable: false</text>
<polyline fill="none" stroke="black" points="1805.5,-0.5 1805.5,-36.5"/>
<text text-anchor="middle" x="1837.5" y="-21.55" font-family="Arial" font-size="11.00">Last Post </text>
<text text-anchor="middle" x="1837.5" y="-8.05" font-family="Arial" font-size="11.00"> [8]</text>
</g>
<!-- Clases.nodos@5b6f7412 -->
<g id="node13" class="node">
<title>Clases.nodos@5b6f7412</title>
<polygon fill="none" stroke="black" points="1492,-73.5 1492,-109.5 1709.5,-109.5 1709.5,-73.5 1492,-73.5"/>
<text text-anchor="middle" x="1524.38" y="-94.55" font-family="Arial" font-size="11.00">First Post </text>
<text text-anchor="middle" x="1524.38" y="-81.05" font-family="Arial" font-size="11.00">[7]</text>
<polyline fill="none" stroke="black" points="1556.75,-73.5 1556.75,-109.5"/>
<text text-anchor="middle" x="1601.12" y="-94.55" font-family="Arial" font-size="11.00">Nodo: . </text>
<text text-anchor="middle" x="1601.12" y="-81.05" font-family="Arial" font-size="11.00"> Anulable: false</text>
<polyline fill="none" stroke="black" points="1645.5,-73.5 1645.5,-109.5"/>
<text text-anchor="middle" x="1677.5" y="-94.55" font-family="Arial" font-size="11.00">Last Post </text>
<text text-anchor="middle" x="1677.5" y="-81.05" font-family="Arial" font-size="11.00"> [8]</text>
</g>
<!-- Clases.nodos@5b6f7412&#45;&gt;Clases.nodos@34c45dca -->
<g id="edge9" class="edge">
<title>Clases.nodos@5b6f7412&#45;&gt;Clases.nodos@34c45dca</title>
<path fill="none" stroke="black" d="M1582.35,-73.31C1573.09,-64.66 1561.68,-54 1551.47,-44.46"/>
<polygon fill="black" stroke="black" points="1554.04,-42.08 1544.35,-37.81 1549.27,-47.19 1554.04,-42.08"/>
</g>
<!-- Clases.nodos@5b6f7412&#45;&gt;Clases.nodos@52cc8049 -->
<g id="edge10" class="edge">
<title>Clases.nodos@5b6f7412&#45;&gt;Clases.nodos@52cc8049</title>
<path fill="none" stroke="black" d="M1639.89,-73.13C1661.39,-63.59 1688.28,-51.66 1711.22,-41.48"/>
<polygon fill="black" stroke="black" points="1712.35,-44.8 1720.08,-37.55 1709.52,-38.41 1712.35,-44.8"/>
</g>
<!-- Clases.nodos@27973e9b -->
<g id="node14" class="node">
<title>Clases.nodos@27973e9b</title>
<polygon fill="none" stroke="black" points="1492,-146.5 1492,-182.5 1709.5,-182.5 1709.5,-146.5 1492,-146.5"/>
<text text-anchor="middle" x="1524.38" y="-167.55" font-family="Arial" font-size="11.00">First Post </text>
<text text-anchor="middle" x="1524.38" y="-154.05" font-family="Arial" font-size="11.00">[6, 7]</text>
<polyline fill="none" stroke="black" points="1556.75,-146.5 1556.75,-182.5"/>
<text text-anchor="middle" x="1601.12" y="-167.55" font-family="Arial" font-size="11.00">Nodo: | </text>
<text text-anchor="middle" x="1601.12" y="-154.05" font-family="Arial" font-size="11.00"> Anulable: false</text>
<polyline fill="none" stroke="black" points="1645.5,-146.5 1645.5,-182.5"/>
<text text-anchor="middle" x="1677.5" y="-167.55" font-family="Arial" font-size="11.00">Last Post </text>
<text text-anchor="middle" x="1677.5" y="-154.05" font-family="Arial" font-size="11.00"> [6, 8]</text>
</g>
<!-- Clases.nodos@27973e9b&#45;&gt;Clases.nodos@12edcd21 -->
<g id="edge11" class="edge">
<title>Clases.nodos@27973e9b&#45;&gt;Clases.nodos@12edcd21</title>
<path fill="none" stroke="black" d="M1561.23,-146.01C1504.5,-119.46 1400.02,-70.57 1338.22,-41.65"/>
<polygon fill="black" stroke="black" points="1339.86,-38.55 1329.32,-37.48 1336.89,-44.89 1339.86,-38.55"/>
</g>
<!-- Clases.nodos@27973e9b&#45;&gt;Clases.nodos@5b6f7412 -->
<g id="edge12" class="edge">
<title>Clases.nodos@27973e9b&#45;&gt;Clases.nodos@5b6f7412</title>
<path fill="none" stroke="black" d="M1600.75,-146.31C1600.75,-138.73 1600.75,-129.6 1600.75,-121.04"/>
<polygon fill="black" stroke="black" points="1604.25,-121.04 1600.75,-111.04 1597.25,-121.04 1604.25,-121.04"/>
</g>
<!-- Clases.nodos@312b1dae -->
<g id="node15" class="node">
<title>Clases.nodos@312b1dae</title>
<polygon fill="none" stroke="black" points="1888,-0.5 1888,-36.5 2105.5,-36.5 2105.5,-0.5 1888,-0.5"/>
<text text-anchor="middle" x="1920.38" y="-21.55" font-family="Arial" font-size="11.00">First Post </text>
<text text-anchor="middle" x="1920.38" y="-8.05" font-family="Arial" font-size="11.00">[9]</text>
<polyline fill="none" stroke="black" points="1952.75,-0.5 1952.75,-36.5"/>
<text text-anchor="middle" x="1997.12" y="-21.55" font-family="Arial" font-size="11.00">Nodo: c </text>
<text text-anchor="middle" x="1997.12" y="-8.05" font-family="Arial" font-size="11.00"> Anulable: false</text>
<polyline fill="none" stroke="black" points="2041.5,-0.5 2041.5,-36.5"/>
<text text-anchor="middle" x="2073.5" y="-21.55" font-family="Arial" font-size="11.00">Last Post </text>
<text text-anchor="middle" x="2073.5" y="-8.05" font-family="Arial" font-size="11.00"> [9]</text>
</g>
<!-- Clases.nodos@7530d0a -->
<g id="node16" class="node">
<title>Clases.nodos@7530d0a</title>
<polygon fill="none" stroke="black" points="2124,-0.5 2124,-36.5 2341.5,-36.5 2341.5,-0.5 2124,-0.5"/>
<text text-anchor="middle" x="2156.38" y="-21.55" font-family="Arial" font-size="11.00">First Post </text>
<text text-anchor="middle" x="2156.38" y="-8.05" font-family="Arial" font-size="11.00">[10]</text>
<polyline fill="none" stroke="black" points="2188.75,-0.5 2188.75,-36.5"/>
<text text-anchor="middle" x="2233.12" y="-21.55" font-family="Arial" font-size="11.00">Nodo: d </text>
<text text-anchor="middle" x="2233.12" y="-8.05" font-family="Arial" font-size="11.00"> Anulable: false</text>
<polyline fill="none" stroke="black" points="2277.5,-0.5 2277.5,-36.5"/>
<text text-anchor="middle" x="2309.5" y="-21.55" font-family="Arial" font-size="11.00">Last Post </text>
<text text-anchor="middle" x="2309.5" y="-8.05" font-family="Arial" font-size="11.00"> [10]</text>
</g>
<!-- Clases.nodos@27bc2616 -->
<g id="node17" class="node">
<title>Clases.nodos@27bc2616</title>
<polygon fill="none" stroke="black" points="1888,-73.5 1888,-109.5 2105.5,-109.5 2105.5,-73.5 1888,-73.5"/>
<text text-anchor="middle" x="1920.38" y="-94.55" font-family="Arial" font-size="11.00">First Post </text>
<text text-anchor="middle" x="1920.38" y="-81.05" font-family="Arial" font-size="11.00">[9]</text>
<polyline fill="none" stroke="black" points="1952.75,-73.5 1952.75,-109.5"/>
<text text-anchor="middle" x="1997.12" y="-94.55" font-family="Arial" font-size="11.00">Nodo: . </text>
<text text-anchor="middle" x="1997.12" y="-81.05" font-family="Arial" font-size="11.00"> Anulable: false</text>
<polyline fill="none" stroke="black" points="2041.5,-73.5 2041.5,-109.5"/>
<text text-anchor="middle" x="2073.5" y="-94.55" font-family="Arial" font-size="11.00">Last Post </text>
<text text-anchor="middle" x="2073.5" y="-81.05" font-family="Arial" font-size="11.00"> [10]</text>
</g>
<!-- Clases.nodos@27bc2616&#45;&gt;Clases.nodos@312b1dae -->
<g id="edge13" class="edge">
<title>Clases.nodos@27bc2616&#45;&gt;Clases.nodos@312b1dae</title>
<path fill="none" stroke="black" d="M1996.75,-73.31C1996.75,-65.73 1996.75,-56.6 1996.75,-48.04"/>
<polygon fill="black" stroke="black" points="2000.25,-48.04 1996.75,-38.04 1993.25,-48.04 2000.25,-48.04"/>
</g>
<!-- Clases.nodos@27bc2616&#45;&gt;Clases.nodos@7530d0a -->
<g id="edge14" class="edge">
<title>Clases.nodos@27bc2616&#45;&gt;Clases.nodos@7530d0a</title>
<path fill="none" stroke="black" d="M2054.78,-73.04C2087.79,-63.11 2129.32,-50.62 2163.96,-40.2"/>
<polygon fill="black" stroke="black" points="2164.92,-43.56 2173.49,-37.33 2162.91,-36.86 2164.92,-43.56"/>
</g>
<!-- Clases.nodos@3941a79c -->
<g id="node18" class="node">
<title>Clases.nodos@3941a79c</title>
<polygon fill="none" stroke="black" points="1569,-219.5 1569,-255.5 1786.5,-255.5 1786.5,-219.5 1569,-219.5"/>
<text text-anchor="middle" x="1601.38" y="-240.55" font-family="Arial" font-size="11.00">First Post </text>
<text text-anchor="middle" x="1601.38" y="-227.05" font-family="Arial" font-size="11.00">[6, 7, 9]</text>
<polyline fill="none" stroke="black" points="1633.75,-219.5 1633.75,-255.5"/>
<text text-anchor="middle" x="1678.12" y="-240.55" font-family="Arial" font-size="11.00">Nodo: | </text>
<text text-anchor="middle" x="1678.12" y="-227.05" font-family="Arial" font-size="11.00"> Anulable: false</text>
<polyline fill="none" stroke="black" points="1722.5,-219.5 1722.5,-255.5"/>
<text text-anchor="middle" x="1754.5" y="-240.55" font-family="Arial" font-size="11.00">Last Post </text>
<text text-anchor="middle" x="1754.5" y="-227.05" font-family="Arial" font-size="11.00"> [6, 8, 10]</text>
</g>
<!-- Clases.nodos@3941a79c&#45;&gt;Clases.nodos@27973e9b -->
<g id="edge15" class="edge">
<title>Clases.nodos@3941a79c&#45;&gt;Clases.nodos@27973e9b</title>
<path fill="none" stroke="black" d="M1659.11,-219.31C1649.72,-210.66 1638.16,-200 1627.82,-190.46"/>
<polygon fill="black" stroke="black" points="1630.32,-188.01 1620.6,-183.8 1625.58,-193.15 1630.32,-188.01"/>
</g>
<!-- Clases.nodos@3941a79c&#45;&gt;Clases.nodos@27bc2616 -->
<g id="edge16" class="edge">
<title>Clases.nodos@3941a79c&#45;&gt;Clases.nodos@27bc2616</title>
<path fill="none" stroke="black" d="M1718.15,-219.01C1776.2,-192.44 1883.14,-143.5 1946.3,-114.59"/>
<polygon fill="black" stroke="black" points="1947.41,-117.93 1955.05,-110.59 1944.5,-111.56 1947.41,-117.93"/>
</g>
<!-- Clases.nodos@506e1b77 -->
<g id="node19" class="node">
<title>Clases.nodos@506e1b77</title>
<polygon fill="none" stroke="black" points="1570.88,-292.5 1570.88,-328.5 1784.62,-328.5 1784.62,-292.5 1570.88,-292.5"/>
<text text-anchor="middle" x="1603.25" y="-313.55" font-family="Arial" font-size="11.00">First Post </text>
<text text-anchor="middle" x="1603.25" y="-300.05" font-family="Arial" font-size="11.00">[6, 7, 9]</text>
<polyline fill="none" stroke="black" points="1635.62,-292.5 1635.62,-328.5"/>
<text text-anchor="middle" x="1678.12" y="-313.55" font-family="Arial" font-size="11.00">Nodo: * </text>
<text text-anchor="middle" x="1678.12" y="-300.05" font-family="Arial" font-size="11.00"> Anulable: true</text>
<polyline fill="none" stroke="black" points="1720.62,-292.5 1720.62,-328.5"/>
<text text-anchor="middle" x="1752.62" y="-313.55" font-family="Arial" font-size="11.00">Last Post </text>
<text text-anchor="middle" x="1752.62" y="-300.05" font-family="Arial" font-size="11.00"> [6, 8, 10]</text>
</g>
<!-- Clases.nodos@506e1b77&#45;&gt;Clases.nodos@3941a79c -->
<g id="edge17" class="edge">
<title>Clases.nodos@506e1b77&#45;&gt;Clases.nodos@3941a79c</title>
<path fill="none" stroke="black" d="M1677.75,-292.31C1677.75,-284.73 1677.75,-275.6 1677.75,-267.04"/>
<polygon fill="black" stroke="black" points="1681.25,-267.04 1677.75,-257.04 1674.25,-267.04 1681.25,-267.04"/>
</g>
<!-- Clases.nodos@4fca772d -->
<g id="node20" class="node">
<title>Clases.nodos@4fca772d</title>
<polygon fill="none" stroke="black" points="1552.5,-365.5 1552.5,-401.5 1803,-401.5 1803,-365.5 1552.5,-365.5"/>
<text text-anchor="middle" x="1584.88" y="-386.55" font-family="Arial" font-size="11.00">First Post </text>
<text text-anchor="middle" x="1584.88" y="-373.05" font-family="Arial" font-size="11.00">[1, 2, 4]</text>
<polyline fill="none" stroke="black" points="1617.25,-365.5 1617.25,-401.5"/>
<text text-anchor="middle" x="1661.62" y="-386.55" font-family="Arial" font-size="11.00">Nodo: . </text>
<text text-anchor="middle" x="1661.62" y="-373.05" font-family="Arial" font-size="11.00"> Anulable: false</text>
<polyline fill="none" stroke="black" points="1706,-365.5 1706,-401.5"/>
<text text-anchor="middle" x="1754.5" y="-386.55" font-family="Arial" font-size="11.00">Last Post </text>
<text text-anchor="middle" x="1754.5" y="-373.05" font-family="Arial" font-size="11.00"> [1, 3, 5, 6, 8, 10]</text>
</g>
<!-- Clases.nodos@4fca772d&#45;&gt;Clases.nodos@6e8cf4c6 -->
<g id="edge18" class="edge">
<title>Clases.nodos@4fca772d&#45;&gt;Clases.nodos@6e8cf4c6</title>
<path fill="none" stroke="black" d="M1583.65,-365.01C1444.55,-337.68 1184.9,-286.65 1039.78,-258.14"/>
<polygon fill="black" stroke="black" points="1040.64,-254.74 1030.16,-256.25 1039.29,-261.61 1040.64,-254.74"/>
</g>
<!-- Clases.nodos@4fca772d&#45;&gt;Clases.nodos@506e1b77 -->
<g id="edge19" class="edge">
<title>Clases.nodos@4fca772d&#45;&gt;Clases.nodos@506e1b77</title>
<path fill="none" stroke="black" d="M1677.75,-365.31C1677.75,-357.73 1677.75,-348.6 1677.75,-340.04"/>
<polygon fill="black" stroke="black" points="1681.25,-340.04 1677.75,-330.04 1674.25,-340.04 1681.25,-340.04"/>
</g>
<!-- Clases.nodos@9807454 -->
<g id="node21" class="node">
<title>Clases.nodos@9807454</title>
<polygon fill="none" stroke="black" points="2360,-0.5 2360,-36.5 2577.5,-36.5 2577.5,-0.5 2360,-0.5"/>
<text text-anchor="middle" x="2392.38" y="-21.55" font-family="Arial" font-size="11.00">First Post </text>
<text text-anchor="middle" x="2392.38" y="-8.05" font-family="Arial" font-size="11.00">[11]</text>
<polyline fill="none" stroke="black" points="2424.75,-0.5 2424.75,-36.5"/>
<text text-anchor="middle" x="2469.12" y="-21.55" font-family="Arial" font-size="11.00">Nodo: h </text>
<text text-anchor="middle" x="2469.12" y="-8.05" font-family="Arial" font-size="11.00"> Anulable: false</text>
<polyline fill="none" stroke="black" points="2513.5,-0.5 2513.5,-36.5"/>
<text text-anchor="middle" x="2545.5" y="-21.55" font-family="Arial" font-size="11.00">Last Post </text>
<text text-anchor="middle" x="2545.5" y="-8.05" font-family="Arial" font-size="11.00"> [11]</text>
</g>
<!-- Clases.nodos@3d494fbf -->
<g id="node22" class="node">
<title>Clases.nodos@3d494fbf</title>
<polygon fill="none" stroke="black" points="2595.88,-0.5 2595.88,-36.5 2809.62,-36.5 2809.62,-0.5 2595.88,-0.5"/>
<text text-anchor="middle" x="2628.25" y="-21.55" font-family="Arial" font-size="11.00">First Post </text>
<text text-anchor="middle" x="2628.25" y="-8.05" font-family="Arial" font-size="11.00">[]</text>
<polyline fill="none" stroke="black" points="2660.62,-0.5 2660.62,-36.5"/>
<text text-anchor="middle" x="2703.12" y="-21.55" font-family="Arial" font-size="11.00">Nodo: E </text>
<text text-anchor="middle" x="2703.12" y="-8.05" font-family="Arial" font-size="11.00"> Anulable: true</text>
<polyline fill="none" stroke="black" points="2745.62,-0.5 2745.62,-36.5"/>
<text text-anchor="middle" x="2777.62" y="-21.55" font-family="Arial" font-size="11.00">Last Post </text>
<text text-anchor="middle" x="2777.62" y="-8.05" font-family="Arial" font-size="11.00"> []</text>
</g>
<!-- Clases.nodos@1ddc4ec2 -->
<g id="node23" class="node">
<title>Clases.nodos@1ddc4ec2</title>
<polygon fill="none" stroke="black" points="2478.88,-73.5 2478.88,-109.5 2692.62,-109.5 2692.62,-73.5 2478.88,-73.5"/>
<text text-anchor="middle" x="2511.25" y="-94.55" font-family="Arial" font-size="11.00">First Post </text>
<text text-anchor="middle" x="2511.25" y="-81.05" font-family="Arial" font-size="11.00">[11]</text>
<polyline fill="none" stroke="black" points="2543.62,-73.5 2543.62,-109.5"/>
<text text-anchor="middle" x="2586.12" y="-94.55" font-family="Arial" font-size="11.00">Nodo: | </text>
<text text-anchor="middle" x="2586.12" y="-81.05" font-family="Arial" font-size="11.00"> Anulable: true</text>
<polyline fill="none" stroke="black" points="2628.62,-73.5 2628.62,-109.5"/>
<text text-anchor="middle" x="2660.62" y="-94.55" font-family="Arial" font-size="11.00">Last Post </text>
<text text-anchor="middle" x="2660.62" y="-81.05" font-family="Arial" font-size="11.00"> [11]</text>
</g>
<!-- Clases.nodos@1ddc4ec2&#45;&gt;Clases.nodos@9807454 -->
<g id="edge20" class="edge">
<title>Clases.nodos@1ddc4ec2&#45;&gt;Clases.nodos@9807454</title>
<path fill="none" stroke="black" d="M2557.13,-73.13C2542.11,-64.02 2523.51,-52.73 2507.25,-42.86"/>
<polygon fill="black" stroke="black" points="2509.14,-39.92 2498.78,-37.72 2505.51,-45.9 2509.14,-39.92"/>
</g>
<!-- Clases.nodos@1ddc4ec2&#45;&gt;Clases.nodos@3d494fbf -->
<g id="edge21" class="edge">
<title>Clases.nodos@1ddc4ec2&#45;&gt;Clases.nodos@3d494fbf</title>
<path fill="none" stroke="black" d="M2614.37,-73.13C2629.39,-64.02 2647.99,-52.73 2664.25,-42.86"/>
<polygon fill="black" stroke="black" points="2665.99,-45.9 2672.72,-37.72 2662.36,-39.92 2665.99,-45.9"/>
</g>
<!-- Clases.nodos@133314b -->
<g id="node24" class="node">
<title>Clases.nodos@133314b</title>
<polygon fill="none" stroke="black" points="2451.5,-438.5 2451.5,-474.5 2720,-474.5 2720,-438.5 2451.5,-438.5"/>
<text text-anchor="middle" x="2483.88" y="-459.55" font-family="Arial" font-size="11.00">First Post </text>
<text text-anchor="middle" x="2483.88" y="-446.05" font-family="Arial" font-size="11.00">[1, 2, 4]</text>
<polyline fill="none" stroke="black" points="2516.25,-438.5 2516.25,-474.5"/>
<text text-anchor="middle" x="2560.62" y="-459.55" font-family="Arial" font-size="11.00">Nodo: . </text>
<text text-anchor="middle" x="2560.62" y="-446.05" font-family="Arial" font-size="11.00"> Anulable: false</text>
<polyline fill="none" stroke="black" points="2605,-438.5 2605,-474.5"/>
<text text-anchor="middle" x="2662.5" y="-459.55" font-family="Arial" font-size="11.00">Last Post </text>
<text text-anchor="middle" x="2662.5" y="-446.05" font-family="Arial" font-size="11.00"> [1, 3, 5, 6, 8, 10, 11]</text>
</g>
<!-- Clases.nodos@133314b&#45;&gt;Clases.nodos@4fca772d -->
<g id="edge22" class="edge">
<title>Clases.nodos@133314b&#45;&gt;Clases.nodos@4fca772d</title>
<path fill="none" stroke="black" d="M2451.28,-444.99C2280.36,-431.62 1986.89,-408.67 1814.76,-395.21"/>
<polygon fill="black" stroke="black" points="1815.1,-391.73 1804.86,-394.44 1814.56,-398.71 1815.1,-391.73"/>
</g>
<!-- Clases.nodos@133314b&#45;&gt;Clases.nodos@1ddc4ec2 -->
<g id="edge23" class="edge">
<title>Clases.nodos@133314b&#45;&gt;Clases.nodos@1ddc4ec2</title>
<path fill="none" stroke="black" d="M2585.75,-438.15C2585.75,-379.11 2585.75,-193.72 2585.75,-121.1"/>
<polygon fill="black" stroke="black" points="2589.25,-121.18 2585.75,-111.18 2582.25,-121.18 2589.25,-121.18"/>
</g>
<!-- Clases.nodos@b1bc7ed -->
<g id="node25" class="node">
<title>Clases.nodos@b1bc7ed</title>
<polygon fill="none" stroke="black" points="2828,-0.5 2828,-36.5 3045.5,-36.5 3045.5,-0.5 2828,-0.5"/>
<text text-anchor="middle" x="2860.38" y="-21.55" font-family="Arial" font-size="11.00">First Post </text>
<text text-anchor="middle" x="2860.38" y="-8.05" font-family="Arial" font-size="11.00">[12]</text>
<polyline fill="none" stroke="black" points="2892.75,-0.5 2892.75,-36.5"/>
<text text-anchor="middle" x="2937.12" y="-21.55" font-family="Arial" font-size="11.00">Nodo: # </text>
<text text-anchor="middle" x="2937.12" y="-8.05" font-family="Arial" font-size="11.00"> Anulable: false</text>
<polyline fill="none" stroke="black" points="2981.5,-0.5 2981.5,-36.5"/>
<text text-anchor="middle" x="3013.5" y="-21.55" font-family="Arial" font-size="11.00">Last Post </text>
<text text-anchor="middle" x="3013.5" y="-8.05" font-family="Arial" font-size="11.00"> [12]</text>
</g>
<!-- Clases.nodos@7cd84586 -->
<g id="node26" class="node">
<title>Clases.nodos@7cd84586</title>
<polygon fill="none" stroke="black" points="2711,-511.5 2711,-547.5 2928.5,-547.5 2928.5,-511.5 2711,-511.5"/>
<text text-anchor="middle" x="2743.38" y="-532.55" font-family="Arial" font-size="11.00">First Post </text>
<text text-anchor="middle" x="2743.38" y="-519.05" font-family="Arial" font-size="11.00">[1, 2, 4]</text>
<polyline fill="none" stroke="black" points="2775.75,-511.5 2775.75,-547.5"/>
<text text-anchor="middle" x="2820.12" y="-532.55" font-family="Arial" font-size="11.00">Nodo: . </text>
<text text-anchor="middle" x="2820.12" y="-519.05" font-family="Arial" font-size="11.00"> Anulable: false</text>
<polyline fill="none" stroke="black" points="2864.5,-511.5 2864.5,-547.5"/>
<text text-anchor="middle" x="2896.5" y="-532.55" font-family="Arial" font-size="11.00">Last Post </text>
<text text-anchor="middle" x="2896.5" y="-519.05" font-family="Arial" font-size="11.00"> [12]</text>
</g>
<!-- Clases.nodos@7cd84586&#45;&gt;Clases.nodos@133314b -->
<g id="edge24" class="edge">
<title>Clases.nodos@7cd84586&#45;&gt;Clases.nodos@133314b</title>
<path fill="none" stroke="black" d="M2762.21,-511.04C2729.48,-501.11 2688.31,-488.62 2653.96,-478.2"/>
<polygon fill="black" stroke="black" points="2655.1,-474.89 2644.52,-475.33 2653.07,-481.58 2655.1,-474.89"/>
</g>
<!-- Clases.nodos@7cd84586&#45;&gt;Clases.nodos@b1bc7ed -->
<g id="edge25" class="edge">
<title>Clases.nodos@7cd84586&#45;&gt;Clases.nodos@b1bc7ed</title>
<path fill="none" stroke="black" d="M2823.98,-511.01C2841.51,-434.48 2908.45,-142.12 2930.01,-47.93"/>
<polygon fill="black" stroke="black" points="2933.36,-48.97 2932.18,-38.44 2926.54,-47.41 2933.36,-48.97"/>
</g>
</g>
</svg>
