<?xml version="1.0" encoding="UTF-8" standalone="no"?>
<!DOCTYPE svg PUBLIC "-//W3C//DTD SVG 1.1//EN"
 "http://www.w3.org/Graphics/SVG/1.1/DTD/svg11.dtd">
<!-- Generated by graphviz version 11.0.0 (20240428.1522)
 -->
<!-- Title: Gramatica Pages: 1 -->
<svg width="1642pt" height="441pt"
 viewBox="0.00 0.00 1641.50 441.25" xmlns="http://www.w3.org/2000/svg" xmlns:xlink="http://www.w3.org/1999/xlink">
<g id="graph0" class="graph" transform="scale(1 1) rotate(0) translate(4 437.25)">
<title>Gramatica</title>
<polygon fill="white" stroke="none" points="-4,4 -4,-437.25 1637.5,-437.25 1637.5,4 -4,4"/>
<text text-anchor="middle" x="816.75" y="-410.25" font-family="Arial " font-size="20.00">((a|b|c).(d|b).d*).#</text>
<!-- Clases.nodos@4eec7777 -->
<g id="node1" class="node">
<title>Clases.nodos@4eec7777</title>
<polygon fill="none" stroke="black" points="0,-0.5 0,-36.5 217.5,-36.5 217.5,-0.5 0,-0.5"/>
<text text-anchor="middle" x="32.38" y="-21.55" font-family="Arial" font-size="11.00">First Post </text>
<text text-anchor="middle" x="32.38" y="-8.05" font-family="Arial" font-size="11.00">[1]</text>
<polyline fill="none" stroke="black" points="64.75,-0.5 64.75,-36.5"/>
<text text-anchor="middle" x="109.12" y="-21.55" font-family="Arial" font-size="11.00">Nodo: a </text>
<text text-anchor="middle" x="109.12" y="-8.05" font-family="Arial" font-size="11.00"> Anulable: false</text>
<polyline fill="none" stroke="black" points="153.5,-0.5 153.5,-36.5"/>
<text text-anchor="middle" x="185.5" y="-21.55" font-family="Arial" font-size="11.00">Last Post </text>
<text text-anchor="middle" x="185.5" y="-8.05" font-family="Arial" font-size="11.00"> [1]</text>
</g>
<!-- Clases.nodos@4e50df2e -->
<g id="node2" class="node">
<title>Clases.nodos@4e50df2e</title>
<polygon fill="none" stroke="black" points="236,-0.5 236,-36.5 453.5,-36.5 453.5,-0.5 236,-0.5"/>
<text text-anchor="middle" x="268.38" y="-21.55" font-family="Arial" font-size="11.00">First Post </text>
<text text-anchor="middle" x="268.38" y="-8.05" font-family="Arial" font-size="11.00">[2]</text>
<polyline fill="none" stroke="black" points="300.75,-0.5 300.75,-36.5"/>
<text text-anchor="middle" x="345.12" y="-21.55" font-family="Arial" font-size="11.00">Nodo: b </text>
<text text-anchor="middle" x="345.12" y="-8.05" font-family="Arial" font-size="11.00"> Anulable: false</text>
<polyline fill="none" stroke="black" points="389.5,-0.5 389.5,-36.5"/>
<text text-anchor="middle" x="421.5" y="-21.55" font-family="Arial" font-size="11.00">Last Post </text>
<text text-anchor="middle" x="421.5" y="-8.05" font-family="Arial" font-size="11.00"> [2]</text>
</g>
<!-- Clases.nodos@1d81eb93 -->
<g id="node3" class="node">
<title>Clases.nodos@1d81eb93</title>
<polygon fill="none" stroke="black" points="236,-73.5 236,-109.5 453.5,-109.5 453.5,-73.5 236,-73.5"/>
<text text-anchor="middle" x="268.38" y="-94.55" font-family="Arial" font-size="11.00">First Post </text>
<text text-anchor="middle" x="268.38" y="-81.05" font-family="Arial" font-size="11.00">[1, 2]</text>
<polyline fill="none" stroke="black" points="300.75,-73.5 300.75,-109.5"/>
<text text-anchor="middle" x="345.12" y="-94.55" font-family="Arial" font-size="11.00">Nodo: | </text>
<text text-anchor="middle" x="345.12" y="-81.05" font-family="Arial" font-size="11.00"> Anulable: false</text>
<polyline fill="none" stroke="black" points="389.5,-73.5 389.5,-109.5"/>
<text text-anchor="middle" x="421.5" y="-94.55" font-family="Arial" font-size="11.00">Last Post </text>
<text text-anchor="middle" x="421.5" y="-81.05" font-family="Arial" font-size="11.00"> [1, 2]</text>
</g>
<!-- Clases.nodos@1d81eb93&#45;&gt;Clases.nodos@4eec7777 -->
<g id="edge1" class="edge">
<title>Clases.nodos@1d81eb93&#45;&gt;Clases.nodos@4eec7777</title>
<path fill="none" stroke="black" d="M286.72,-73.04C253.71,-63.11 212.18,-50.62 177.54,-40.2"/>
<polygon fill="black" stroke="black" points="178.59,-36.86 168.01,-37.33 176.58,-43.56 178.59,-36.86"/>
</g>
<!-- Clases.nodos@1d81eb93&#45;&gt;Clases.nodos@4e50df2e -->
<g id="edge2" class="edge">
<title>Clases.nodos@1d81eb93&#45;&gt;Clases.nodos@4e50df2e</title>
<path fill="none" stroke="black" d="M344.75,-73.31C344.75,-65.73 344.75,-56.6 344.75,-48.04"/>
<polygon fill="black" stroke="black" points="348.25,-48.04 344.75,-38.04 341.25,-48.04 348.25,-48.04"/>
</g>
<!-- Clases.nodos@7291c18f -->
<g id="node4" class="node">
<title>Clases.nodos@7291c18f</title>
<polygon fill="none" stroke="black" points="472,-0.5 472,-36.5 689.5,-36.5 689.5,-0.5 472,-0.5"/>
<text text-anchor="middle" x="504.38" y="-21.55" font-family="Arial" font-size="11.00">First Post </text>
<text text-anchor="middle" x="504.38" y="-8.05" font-family="Arial" font-size="11.00">[3]</text>
<polyline fill="none" stroke="black" points="536.75,-0.5 536.75,-36.5"/>
<text text-anchor="middle" x="581.12" y="-21.55" font-family="Arial" font-size="11.00">Nodo: c </text>
<text text-anchor="middle" x="581.12" y="-8.05" font-family="Arial" font-size="11.00"> Anulable: false</text>
<polyline fill="none" stroke="black" points="625.5,-0.5 625.5,-36.5"/>
<text text-anchor="middle" x="657.5" y="-21.55" font-family="Arial" font-size="11.00">Last Post </text>
<text text-anchor="middle" x="657.5" y="-8.05" font-family="Arial" font-size="11.00"> [3]</text>
</g>
<!-- Clases.nodos@34a245ab -->
<g id="node5" class="node">
<title>Clases.nodos@34a245ab</title>
<polygon fill="none" stroke="black" points="472,-146.5 472,-182.5 689.5,-182.5 689.5,-146.5 472,-146.5"/>
<text text-anchor="middle" x="504.38" y="-167.55" font-family="Arial" font-size="11.00">First Post </text>
<text text-anchor="middle" x="504.38" y="-154.05" font-family="Arial" font-size="11.00">[1, 2, 3]</text>
<polyline fill="none" stroke="black" points="536.75,-146.5 536.75,-182.5"/>
<text text-anchor="middle" x="581.12" y="-167.55" font-family="Arial" font-size="11.00">Nodo: | </text>
<text text-anchor="middle" x="581.12" y="-154.05" font-family="Arial" font-size="11.00"> Anulable: false</text>
<polyline fill="none" stroke="black" points="625.5,-146.5 625.5,-182.5"/>
<text text-anchor="middle" x="657.5" y="-167.55" font-family="Arial" font-size="11.00">Last Post </text>
<text text-anchor="middle" x="657.5" y="-154.05" font-family="Arial" font-size="11.00"> [1, 2, 3]</text>
</g>
<!-- Clases.nodos@34a245ab&#45;&gt;Clases.nodos@1d81eb93 -->
<g id="edge3" class="edge">
<title>Clases.nodos@34a245ab&#45;&gt;Clases.nodos@1d81eb93</title>
<path fill="none" stroke="black" d="M522.72,-146.04C489.71,-136.11 448.18,-123.62 413.54,-113.2"/>
<polygon fill="black" stroke="black" points="414.59,-109.86 404.01,-110.33 412.58,-116.56 414.59,-109.86"/>
</g>
<!-- Clases.nodos@34a245ab&#45;&gt;Clases.nodos@7291c18f -->
<g id="edge4" class="edge">
<title>Clases.nodos@34a245ab&#45;&gt;Clases.nodos@7291c18f</title>
<path fill="none" stroke="black" d="M580.75,-146.01C580.75,-121.33 580.75,-77.33 580.75,-48.03"/>
<polygon fill="black" stroke="black" points="584.25,-48.35 580.75,-38.35 577.25,-48.35 584.25,-48.35"/>
</g>
<!-- Clases.nodos@7cc355be -->
<g id="node6" class="node">
<title>Clases.nodos@7cc355be</title>
<polygon fill="none" stroke="black" points="708,-0.5 708,-36.5 925.5,-36.5 925.5,-0.5 708,-0.5"/>
<text text-anchor="middle" x="740.38" y="-21.55" font-family="Arial" font-size="11.00">First Post </text>
<text text-anchor="middle" x="740.38" y="-8.05" font-family="Arial" font-size="11.00">[4]</text>
<polyline fill="none" stroke="black" points="772.75,-0.5 772.75,-36.5"/>
<text text-anchor="middle" x="817.12" y="-21.55" font-family="Arial" font-size="11.00">Nodo: d </text>
<text text-anchor="middle" x="817.12" y="-8.05" font-family="Arial" font-size="11.00"> Anulable: false</text>
<polyline fill="none" stroke="black" points="861.5,-0.5 861.5,-36.5"/>
<text text-anchor="middle" x="893.5" y="-21.55" font-family="Arial" font-size="11.00">Last Post </text>
<text text-anchor="middle" x="893.5" y="-8.05" font-family="Arial" font-size="11.00"> [4]</text>
</g>
<!-- Clases.nodos@6e8cf4c6 -->
<g id="node7" class="node">
<title>Clases.nodos@6e8cf4c6</title>
<polygon fill="none" stroke="black" points="944,-0.5 944,-36.5 1161.5,-36.5 1161.5,-0.5 944,-0.5"/>
<text text-anchor="middle" x="976.38" y="-21.55" font-family="Arial" font-size="11.00">First Post </text>
<text text-anchor="middle" x="976.38" y="-8.05" font-family="Arial" font-size="11.00">[5]</text>
<polyline fill="none" stroke="black" points="1008.75,-0.5 1008.75,-36.5"/>
<text text-anchor="middle" x="1053.12" y="-21.55" font-family="Arial" font-size="11.00">Nodo: b </text>
<text text-anchor="middle" x="1053.12" y="-8.05" font-family="Arial" font-size="11.00"> Anulable: false</text>
<polyline fill="none" stroke="black" points="1097.5,-0.5 1097.5,-36.5"/>
<text text-anchor="middle" x="1129.5" y="-21.55" font-family="Arial" font-size="11.00">Last Post </text>
<text text-anchor="middle" x="1129.5" y="-8.05" font-family="Arial" font-size="11.00"> [5]</text>
</g>
<!-- Clases.nodos@12edcd21 -->
<g id="node8" class="node">
<title>Clases.nodos@12edcd21</title>
<polygon fill="none" stroke="black" points="826,-73.5 826,-109.5 1043.5,-109.5 1043.5,-73.5 826,-73.5"/>
<text text-anchor="middle" x="858.38" y="-94.55" font-family="Arial" font-size="11.00">First Post </text>
<text text-anchor="middle" x="858.38" y="-81.05" font-family="Arial" font-size="11.00">[4, 5]</text>
<polyline fill="none" stroke="black" points="890.75,-73.5 890.75,-109.5"/>
<text text-anchor="middle" x="935.12" y="-94.55" font-family="Arial" font-size="11.00">Nodo: | </text>
<text text-anchor="middle" x="935.12" y="-81.05" font-family="Arial" font-size="11.00"> Anulable: false</text>
<polyline fill="none" stroke="black" points="979.5,-73.5 979.5,-109.5"/>
<text text-anchor="middle" x="1011.5" y="-94.55" font-family="Arial" font-size="11.00">Last Post </text>
<text text-anchor="middle" x="1011.5" y="-81.05" font-family="Arial" font-size="11.00"> [4, 5]</text>
</g>
<!-- Clases.nodos@12edcd21&#45;&gt;Clases.nodos@7cc355be -->
<g id="edge5" class="edge">
<title>Clases.nodos@12edcd21&#45;&gt;Clases.nodos@7cc355be</title>
<path fill="none" stroke="black" d="M905.88,-73.13C890.74,-64.02 871.98,-52.73 855.58,-42.86"/>
<polygon fill="black" stroke="black" points="857.4,-39.87 847.02,-37.72 853.79,-45.87 857.4,-39.87"/>
</g>
<!-- Clases.nodos@12edcd21&#45;&gt;Clases.nodos@6e8cf4c6 -->
<g id="edge6" class="edge">
<title>Clases.nodos@12edcd21&#45;&gt;Clases.nodos@6e8cf4c6</title>
<path fill="none" stroke="black" d="M963.62,-73.13C978.76,-64.02 997.52,-52.73 1013.92,-42.86"/>
<polygon fill="black" stroke="black" points="1015.71,-45.87 1022.48,-37.72 1012.1,-39.87 1015.71,-45.87"/>
</g>
<!-- Clases.nodos@34c45dca -->
<g id="node9" class="node">
<title>Clases.nodos@34c45dca</title>
<polygon fill="none" stroke="black" points="826,-219.5 826,-255.5 1043.5,-255.5 1043.5,-219.5 826,-219.5"/>
<text text-anchor="middle" x="858.38" y="-240.55" font-family="Arial" font-size="11.00">First Post </text>
<text text-anchor="middle" x="858.38" y="-227.05" font-family="Arial" font-size="11.00">[1, 2, 3]</text>
<polyline fill="none" stroke="black" points="890.75,-219.5 890.75,-255.5"/>
<text text-anchor="middle" x="935.12" y="-240.55" font-family="Arial" font-size="11.00">Nodo: . </text>
<text text-anchor="middle" x="935.12" y="-227.05" font-family="Arial" font-size="11.00"> Anulable: false</text>
<polyline fill="none" stroke="black" points="979.5,-219.5 979.5,-255.5"/>
<text text-anchor="middle" x="1011.5" y="-240.55" font-family="Arial" font-size="11.00">Last Post </text>
<text text-anchor="middle" x="1011.5" y="-227.05" font-family="Arial" font-size="11.00"> [4, 5]</text>
</g>
<!-- Clases.nodos@34c45dca&#45;&gt;Clases.nodos@34a245ab -->
<g id="edge7" class="edge">
<title>Clases.nodos@34c45dca&#45;&gt;Clases.nodos@34a245ab</title>
<path fill="none" stroke="black" d="M847.7,-219.04C796.57,-208.79 731.81,-195.8 678.88,-185.18"/>
<polygon fill="black" stroke="black" points="679.75,-181.79 669.26,-183.25 678.37,-188.65 679.75,-181.79"/>
</g>
<!-- Clases.nodos@34c45dca&#45;&gt;Clases.nodos@12edcd21 -->
<g id="edge8" class="edge">
<title>Clases.nodos@34c45dca&#45;&gt;Clases.nodos@12edcd21</title>
<path fill="none" stroke="black" d="M934.75,-219.01C934.75,-194.33 934.75,-150.33 934.75,-121.03"/>
<polygon fill="black" stroke="black" points="938.25,-121.35 934.75,-111.35 931.25,-121.35 938.25,-121.35"/>
</g>
<!-- Clases.nodos@52cc8049 -->
<g id="node10" class="node">
<title>Clases.nodos@52cc8049</title>
<polygon fill="none" stroke="black" points="1180,-0.5 1180,-36.5 1397.5,-36.5 1397.5,-0.5 1180,-0.5"/>
<text text-anchor="middle" x="1212.38" y="-21.55" font-family="Arial" font-size="11.00">First Post </text>
<text text-anchor="middle" x="1212.38" y="-8.05" font-family="Arial" font-size="11.00">[6]</text>
<polyline fill="none" stroke="black" points="1244.75,-0.5 1244.75,-36.5"/>
<text text-anchor="middle" x="1289.12" y="-21.55" font-family="Arial" font-size="11.00">Nodo: d </text>
<text text-anchor="middle" x="1289.12" y="-8.05" font-family="Arial" font-size="11.00"> Anulable: false</text>
<polyline fill="none" stroke="black" points="1333.5,-0.5 1333.5,-36.5"/>
<text text-anchor="middle" x="1365.5" y="-21.55" font-family="Arial" font-size="11.00">Last Post </text>
<text text-anchor="middle" x="1365.5" y="-8.05" font-family="Arial" font-size="11.00"> [6]</text>
</g>
<!-- Clases.nodos@5b6f7412 -->
<g id="node11" class="node">
<title>Clases.nodos@5b6f7412</title>
<polygon fill="none" stroke="black" points="1181.88,-146.5 1181.88,-182.5 1395.62,-182.5 1395.62,-146.5 1181.88,-146.5"/>
<text text-anchor="middle" x="1214.25" y="-167.55" font-family="Arial" font-size="11.00">First Post </text>
<text text-anchor="middle" x="1214.25" y="-154.05" font-family="Arial" font-size="11.00">[6]</text>
<polyline fill="none" stroke="black" points="1246.62,-146.5 1246.62,-182.5"/>
<text text-anchor="middle" x="1289.12" y="-167.55" font-family="Arial" font-size="11.00">Nodo: * </text>
<text text-anchor="middle" x="1289.12" y="-154.05" font-family="Arial" font-size="11.00"> Anulable: true</text>
<polyline fill="none" stroke="black" points="1331.62,-146.5 1331.62,-182.5"/>
<text text-anchor="middle" x="1363.62" y="-167.55" font-family="Arial" font-size="11.00">Last Post </text>
<text text-anchor="middle" x="1363.62" y="-154.05" font-family="Arial" font-size="11.00"> [6]</text>
</g>
<!-- Clases.nodos@5b6f7412&#45;&gt;Clases.nodos@52cc8049 -->
<g id="edge9" class="edge">
<title>Clases.nodos@5b6f7412&#45;&gt;Clases.nodos@52cc8049</title>
<path fill="none" stroke="black" d="M1288.75,-146.01C1288.75,-121.33 1288.75,-77.33 1288.75,-48.03"/>
<polygon fill="black" stroke="black" points="1292.25,-48.35 1288.75,-38.35 1285.25,-48.35 1292.25,-48.35"/>
</g>
<!-- Clases.nodos@27973e9b -->
<g id="node12" class="node">
<title>Clases.nodos@27973e9b</title>
<polygon fill="none" stroke="black" points="1180,-292.5 1180,-328.5 1397.5,-328.5 1397.5,-292.5 1180,-292.5"/>
<text text-anchor="middle" x="1212.38" y="-313.55" font-family="Arial" font-size="11.00">First Post </text>
<text text-anchor="middle" x="1212.38" y="-300.05" font-family="Arial" font-size="11.00">[1, 2, 3]</text>
<polyline fill="none" stroke="black" points="1244.75,-292.5 1244.75,-328.5"/>
<text text-anchor="middle" x="1289.12" y="-313.55" font-family="Arial" font-size="11.00">Nodo: . </text>
<text text-anchor="middle" x="1289.12" y="-300.05" font-family="Arial" font-size="11.00"> Anulable: false</text>
<polyline fill="none" stroke="black" points="1333.5,-292.5 1333.5,-328.5"/>
<text text-anchor="middle" x="1365.5" y="-313.55" font-family="Arial" font-size="11.00">Last Post </text>
<text text-anchor="middle" x="1365.5" y="-300.05" font-family="Arial" font-size="11.00"> [4, 5, 6]</text>
</g>
<!-- Clases.nodos@27973e9b&#45;&gt;Clases.nodos@34c45dca -->
<g id="edge10" class="edge">
<title>Clases.nodos@27973e9b&#45;&gt;Clases.nodos@34c45dca</title>
<path fill="none" stroke="black" d="M1201.7,-292.04C1150.57,-281.79 1085.81,-268.8 1032.88,-258.18"/>
<polygon fill="black" stroke="black" points="1033.75,-254.79 1023.26,-256.25 1032.37,-261.65 1033.75,-254.79"/>
</g>
<!-- Clases.nodos@27973e9b&#45;&gt;Clases.nodos@5b6f7412 -->
<g id="edge11" class="edge">
<title>Clases.nodos@27973e9b&#45;&gt;Clases.nodos@5b6f7412</title>
<path fill="none" stroke="black" d="M1288.75,-292.01C1288.75,-267.33 1288.75,-223.33 1288.75,-194.03"/>
<polygon fill="black" stroke="black" points="1292.25,-194.35 1288.75,-184.35 1285.25,-194.35 1292.25,-194.35"/>
</g>
<!-- Clases.nodos@312b1dae -->
<g id="node13" class="node">
<title>Clases.nodos@312b1dae</title>
<polygon fill="none" stroke="black" points="1416,-0.5 1416,-36.5 1633.5,-36.5 1633.5,-0.5 1416,-0.5"/>
<text text-anchor="middle" x="1448.38" y="-21.55" font-family="Arial" font-size="11.00">First Post </text>
<text text-anchor="middle" x="1448.38" y="-8.05" font-family="Arial" font-size="11.00">[7]</text>
<polyline fill="none" stroke="black" points="1480.75,-0.5 1480.75,-36.5"/>
<text text-anchor="middle" x="1525.12" y="-21.55" font-family="Arial" font-size="11.00">Nodo: # </text>
<text text-anchor="middle" x="1525.12" y="-8.05" font-family="Arial" font-size="11.00"> Anulable: false</text>
<polyline fill="none" stroke="black" points="1569.5,-0.5 1569.5,-36.5"/>
<text text-anchor="middle" x="1601.5" y="-21.55" font-family="Arial" font-size="11.00">Last Post </text>
<text text-anchor="middle" x="1601.5" y="-8.05" font-family="Arial" font-size="11.00"> [7]</text>
</g>
<!-- Clases.nodos@7530d0a -->
<g id="node14" class="node">
<title>Clases.nodos@7530d0a</title>
<polygon fill="none" stroke="black" points="1298,-365.5 1298,-401.5 1515.5,-401.5 1515.5,-365.5 1298,-365.5"/>
<text text-anchor="middle" x="1330.38" y="-386.55" font-family="Arial" font-size="11.00">First Post </text>
<text text-anchor="middle" x="1330.38" y="-373.05" font-family="Arial" font-size="11.00">[1, 2, 3]</text>
<polyline fill="none" stroke="black" points="1362.75,-365.5 1362.75,-401.5"/>
<text text-anchor="middle" x="1407.12" y="-386.55" font-family="Arial" font-size="11.00">Nodo: . </text>
<text text-anchor="middle" x="1407.12" y="-373.05" font-family="Arial" font-size="11.00"> Anulable: false</text>
<polyline fill="none" stroke="black" points="1451.5,-365.5 1451.5,-401.5"/>
<text text-anchor="middle" x="1483.5" y="-386.55" font-family="Arial" font-size="11.00">Last Post </text>
<text text-anchor="middle" x="1483.5" y="-373.05" font-family="Arial" font-size="11.00"> [7]</text>
</g>
<!-- Clases.nodos@7530d0a&#45;&gt;Clases.nodos@27973e9b -->
<g id="edge12" class="edge">
<title>Clases.nodos@7530d0a&#45;&gt;Clases.nodos@27973e9b</title>
<path fill="none" stroke="black" d="M1377.88,-365.13C1362.74,-356.02 1343.98,-344.73 1327.58,-334.86"/>
<polygon fill="black" stroke="black" points="1329.4,-331.87 1319.02,-329.72 1325.79,-337.87 1329.4,-331.87"/>
</g>
<!-- Clases.nodos@7530d0a&#45;&gt;Clases.nodos@312b1dae -->
<g id="edge13" class="edge">
<title>Clases.nodos@7530d0a&#45;&gt;Clases.nodos@312b1dae</title>
<path fill="none" stroke="black" d="M1412.68,-365.15C1431.85,-305.87 1492.2,-119.19 1515.47,-47.2"/>
<polygon fill="black" stroke="black" points="1518.66,-48.7 1518.41,-38.11 1512,-46.55 1518.66,-48.7"/>
</g>
</g>
</svg>
