<?xml version="1.0" encoding="UTF-8" standalone="no"?>
<!DOCTYPE svg PUBLIC "-//W3C//DTD SVG 1.1//EN"
 "http://www.w3.org/Graphics/SVG/1.1/DTD/svg11.dtd">
<!-- Generated by graphviz version 11.0.0 (20240428.1522)
 -->
<!-- Title: Automata Pages: 1 -->
<svg width="246pt" height="121pt"
 viewBox="0.00 0.00 245.75 120.83" xmlns="http://www.w3.org/2000/svg" xmlns:xlink="http://www.w3.org/1999/xlink">
<g id="graph0" class="graph" transform="scale(1 1) rotate(0) translate(4 116.83)">
<title>Automata</title>
<polygon fill="white" stroke="none" points="-4,4 -4,-116.83 241.75,-116.83 241.75,4 -4,4"/>
<text text-anchor="middle" x="118.87" y="-97.43" font-family="Arial " font-size="12.00">Automata: ((a|b|c).(d|b).d*).#</text>
<!-- S0 -->
<g id="node1" class="node">
<title>S0</title>
<ellipse fill="limegreen" stroke="black" cx="24.04" cy="-28.04" rx="24.04" ry="24.04"/>
<text text-anchor="middle" x="24.04" y="-22.79" font-family="Arial" font-size="15.00">S0</text>
</g>
<!-- S1 -->
<g id="node2" class="node">
<title>S1</title>
<ellipse fill="none" stroke="black" cx="114.87" cy="-28.04" rx="24.04" ry="24.04"/>
<text text-anchor="middle" x="114.87" y="-22.79" font-family="Arial" font-size="15.00">S1</text>
</g>
<!-- S0&#45;&gt;S1 -->
<g id="edge1" class="edge">
<title>S0&#45;&gt;S1</title>
<path fill="none" stroke="black" d="M44.63,-40.88C53.12,-45 63.29,-48.04 72.83,-46.04 76.05,-45.37 79.31,-44.43 82.53,-43.33"/>
<polygon fill="black" stroke="black" points="83.72,-46.62 91.72,-39.68 81.14,-40.12 83.72,-46.62"/>
<text text-anchor="middle" x="69.46" y="-49.24" font-family="Times,serif" font-size="14.00">a</text>
</g>
<!-- S0&#45;&gt;S1 -->
<g id="edge2" class="edge">
<title>S0&#45;&gt;S1</title>
<path fill="none" stroke="black" d="M48.37,-26.05C56.15,-25.59 64.86,-25.3 72.83,-25.54 74.88,-25.6 76.99,-25.68 79.12,-25.78"/>
<polygon fill="black" stroke="black" points="78.77,-29.26 88.93,-26.29 79.13,-22.27 78.77,-29.26"/>
<text text-anchor="middle" x="69.46" y="-28.24" font-family="Times,serif" font-size="14.00">b</text>
</g>
<!-- S0&#45;&gt;S1 -->
<g id="edge3" class="edge">
<title>S0&#45;&gt;S1</title>
<path fill="none" stroke="black" d="M44.17,-14.35C50.79,-10.38 58.47,-6.57 66.08,-4.54 73,-2.7 80.11,-4.12 86.66,-7"/>
<polygon fill="black" stroke="black" points="84.63,-9.88 95.06,-11.73 88.06,-3.78 84.63,-9.88"/>
<text text-anchor="middle" x="69.46" y="-7.24" font-family="Times,serif" font-size="14.00">c</text>
</g>
<!-- S2 -->
<g id="node3" class="node">
<title>S2</title>
<ellipse fill="#ff3030" stroke="black" cx="209.71" cy="-28.04" rx="24.04" ry="24.04"/>
<ellipse fill="none" stroke="black" cx="209.71" cy="-28.04" rx="28.04" ry="28.04"/>
<text text-anchor="middle" x="209.71" y="-22.79" font-family="Arial" font-size="15.00">S2</text>
</g>
<!-- S1&#45;&gt;S2 -->
<g id="edge4" class="edge">
<title>S1&#45;&gt;S2</title>
<path fill="none" stroke="black" d="M139.3,-28.04C148.59,-28.04 159.52,-28.04 169.93,-28.04"/>
<polygon fill="black" stroke="black" points="169.82,-31.54 179.82,-28.04 169.82,-24.54 169.82,-31.54"/>
<text text-anchor="middle" x="160.29" y="-31.24" font-family="Times,serif" font-size="14.00">d</text>
</g>
<!-- S1&#45;&gt;S2 -->
<g id="edge5" class="edge">
<title>S1&#45;&gt;S2</title>
<path fill="none" stroke="black" d="M136.04,-15.65C142.48,-12.34 149.78,-9.22 156.92,-7.54 163.03,-6.1 169.38,-6.71 175.45,-8.43"/>
<polygon fill="black" stroke="black" points="173.97,-11.6 184.56,-11.95 176.5,-5.08 173.97,-11.6"/>
<text text-anchor="middle" x="160.29" y="-10.24" font-family="Times,serif" font-size="14.00">b</text>
</g>
<!-- S2&#45;&gt;S2 -->
<g id="edge6" class="edge">
<title>S2&#45;&gt;S2</title>
<path fill="none" stroke="black" d="M200.48,-55C200.07,-65.42 203.15,-74.08 209.71,-74.08 213.61,-74.08 216.27,-71.03 217.71,-66.37"/>
<polygon fill="black" stroke="black" points="221.18,-66.82 218.78,-56.5 214.22,-66.07 221.18,-66.82"/>
<text text-anchor="middle" x="209.71" y="-77.28" font-family="Times,serif" font-size="14.00">d</text>
</g>
</g>
</svg>
