<?xml version="1.0" encoding="UTF-8" standalone="no"?>
<!DOCTYPE svg PUBLIC "-//W3C//DTD SVG 1.1//EN"
 "http://www.w3.org/Graphics/SVG/1.1/DTD/svg11.dtd">
<!-- Generated by graphviz version 11.0.0 (20240428.1522)
 -->
<!-- Title: TablaSiguientes Pages: 1 -->
<svg width="284pt" height="439pt"
 viewBox="0.00 0.00 283.50 439.00" xmlns="http://www.w3.org/2000/svg" xmlns:xlink="http://www.w3.org/1999/xlink">
<g id="graph0" class="graph" transform="scale(1 1) rotate(0) translate(4 435)">
<title>TablaSiguientes</title>
<polygon fill="white" stroke="none" points="-4,4 -4,-435 279.5,-435 279.5,4 -4,4"/>
<text text-anchor="middle" x="137.75" y="-412.75" font-family="Arial" font-size="15.00"> Tabla de siguientes: ((a|b|c).(d|b).d*).#</text>
<!-- tabla -->
<g id="node1" class="node">
<title>tabla</title>
<polygon fill="none" stroke="black" points="21.75,-351 21.75,-397 102.75,-397 102.75,-351 21.75,-351"/>
<text text-anchor="start" x="35.62" y="-368.75" font-family="Arial" font-size="15.00">Simbolo</text>
<polygon fill="none" stroke="black" points="105.75,-351 105.75,-397 141.75,-397 141.75,-351 105.75,-351"/>
<text text-anchor="start" x="122.25" y="-368.75" font-family="Arial" font-size="15.00">i</text>
<polygon fill="none" stroke="black" points="144.75,-351 144.75,-397 253.75,-397 253.75,-351 144.75,-351"/>
<text text-anchor="start" x="164.75" y="-368.75" font-family="Arial" font-size="15.00">Siguientes</text>
<polygon fill="none" stroke="black" points="21.75,-302 21.75,-348 102.75,-348 102.75,-302 21.75,-302"/>
<text text-anchor="start" x="58.12" y="-319.75" font-family="Arial" font-size="15.00">a</text>
<polygon fill="none" stroke="black" points="105.75,-302 105.75,-348 141.75,-348 141.75,-302 105.75,-302"/>
<text text-anchor="start" x="119.62" y="-319.75" font-family="Arial" font-size="15.00">1</text>
<polygon fill="none" stroke="black" points="144.75,-302 144.75,-348 253.75,-348 253.75,-302 144.75,-302"/>
<text text-anchor="start" x="182" y="-319.75" font-family="Arial" font-size="15.00">[4, 5]</text>
<polygon fill="none" stroke="black" points="21.75,-253 21.75,-299 102.75,-299 102.75,-253 21.75,-253"/>
<text text-anchor="start" x="58.12" y="-270.75" font-family="Arial" font-size="15.00">b</text>
<polygon fill="none" stroke="black" points="105.75,-253 105.75,-299 141.75,-299 141.75,-253 105.75,-253"/>
<text text-anchor="start" x="119.62" y="-270.75" font-family="Arial" font-size="15.00">2</text>
<polygon fill="none" stroke="black" points="144.75,-253 144.75,-299 253.75,-299 253.75,-253 144.75,-253"/>
<text text-anchor="start" x="182" y="-270.75" font-family="Arial" font-size="15.00">[4, 5]</text>
<polygon fill="none" stroke="black" points="21.75,-204 21.75,-250 102.75,-250 102.75,-204 21.75,-204"/>
<text text-anchor="start" x="58.5" y="-221.75" font-family="Arial" font-size="15.00">c</text>
<polygon fill="none" stroke="black" points="105.75,-204 105.75,-250 141.75,-250 141.75,-204 105.75,-204"/>
<text text-anchor="start" x="119.62" y="-221.75" font-family="Arial" font-size="15.00">3</text>
<polygon fill="none" stroke="black" points="144.75,-204 144.75,-250 253.75,-250 253.75,-204 144.75,-204"/>
<text text-anchor="start" x="182" y="-221.75" font-family="Arial" font-size="15.00">[4, 5]</text>
<polygon fill="none" stroke="black" points="21.75,-155 21.75,-201 102.75,-201 102.75,-155 21.75,-155"/>
<text text-anchor="start" x="58.12" y="-172.75" font-family="Arial" font-size="15.00">d</text>
<polygon fill="none" stroke="black" points="105.75,-155 105.75,-201 141.75,-201 141.75,-155 105.75,-155"/>
<text text-anchor="start" x="119.62" y="-172.75" font-family="Arial" font-size="15.00">4</text>
<polygon fill="none" stroke="black" points="144.75,-155 144.75,-201 253.75,-201 253.75,-155 144.75,-155"/>
<text text-anchor="start" x="182" y="-172.75" font-family="Arial" font-size="15.00">[6, 7]</text>
<polygon fill="none" stroke="black" points="21.75,-106 21.75,-152 102.75,-152 102.75,-106 21.75,-106"/>
<text text-anchor="start" x="58.12" y="-123.75" font-family="Arial" font-size="15.00">b</text>
<polygon fill="none" stroke="black" points="105.75,-106 105.75,-152 141.75,-152 141.75,-106 105.75,-106"/>
<text text-anchor="start" x="119.62" y="-123.75" font-family="Arial" font-size="15.00">5</text>
<polygon fill="none" stroke="black" points="144.75,-106 144.75,-152 253.75,-152 253.75,-106 144.75,-106"/>
<text text-anchor="start" x="182" y="-123.75" font-family="Arial" font-size="15.00">[6, 7]</text>
<polygon fill="none" stroke="black" points="21.75,-57 21.75,-103 102.75,-103 102.75,-57 21.75,-57"/>
<text text-anchor="start" x="58.12" y="-74.75" font-family="Arial" font-size="15.00">d</text>
<polygon fill="none" stroke="black" points="105.75,-57 105.75,-103 141.75,-103 141.75,-57 105.75,-57"/>
<text text-anchor="start" x="119.62" y="-74.75" font-family="Arial" font-size="15.00">6</text>
<polygon fill="none" stroke="black" points="144.75,-57 144.75,-103 253.75,-103 253.75,-57 144.75,-57"/>
<text text-anchor="start" x="182" y="-74.75" font-family="Arial" font-size="15.00">[6, 7]</text>
<polygon fill="none" stroke="black" points="21.75,-8 21.75,-54 102.75,-54 102.75,-8 21.75,-8"/>
<text text-anchor="start" x="58.12" y="-25.75" font-family="Arial" font-size="15.00">#</text>
<polygon fill="none" stroke="black" points="105.75,-8 105.75,-54 141.75,-54 141.75,-8 105.75,-8"/>
<text text-anchor="start" x="119.62" y="-25.75" font-family="Arial" font-size="15.00">7</text>
<polygon fill="none" stroke="black" points="144.75,-8 144.75,-54 253.75,-54 253.75,-8 144.75,-8"/>
<text text-anchor="start" x="158.38" y="-25.75" font-family="Arial" font-size="15.00"> Aceptacion </text>
<polygon fill="none" stroke="black" points="17.75,-4 17.75,-401 257.75,-401 257.75,-4 17.75,-4"/>
</g>
</g>
</svg>
